<svg xmlns="http://www.w3.org/2000/svg" width="327" height="327">
  <g id="background" fill="#fff" opacity="0">
    <rect x="0" y="0" width="100%" height="100%"/>
  </g>
  <g id="E" fill="#fff">
    <rect x="100" y="60" width="6" height="207"/>
    <rect x="110" y="60" width="6" height="207"/>
    <rect x="120" y="60" width="6" height="207"/>
    <rect x="130" y="60" width="6" height="207"/>
    <rect x="140" y="60" width="6" height="207"/>

    <rect x="145" y="60" width="76" height="6"/>
    <rect x="145" y="70" width="76" height="6"/>
    <rect x="145" y="80" width="76" height="6"/>
    <rect x="145" y="90" width="76" height="6"/>
    <rect x="145" y="100" width="76" height="6"/>

    <rect x="145" y="140" width="56" height="6"/>
    <rect x="145" y="150" width="56" height="6"/>
    <rect x="145" y="160" width="56" height="6"/>
    <rect x="145" y="170" width="56" height="6"/>
    <rect x="145" y="180" width="56" height="6"/>

    <rect x="145" y="221" width="76" height="6"/>
    <rect x="145" y="231" width="76" height="6"/>
    <rect x="145" y="241" width="76" height="6"/>
    <rect x="145" y="251" width="76" height="6"/>
    <rect x="145" y="261" width="76" height="6"/>
  </g>
</svg>
